<?xml version="1.0" encoding="utf-8"?>
<!-- Generator: Adobe Illustrator 24.1.1, SVG Export Plug-In . SVG Version: 6.00 Build 0)  -->
<svg version="1.1" id="Layer_1" xmlns="http://www.w3.org/2000/svg" xmlns:xlink="http://www.w3.org/1999/xlink" x="0px" y="0px"
	 viewBox="0 0 600 600" style="enable-background:new 0 0 600 600;" xml:space="preserve">
<style type="text/css">
	.st0{fill:#FF2400;}
</style>
<g>
	<path class="st0" d="M426.71,81l126.44,219L426.71,519H173.83L47.39,300L173.83,81H426.71 M446.34,47H154.2L8.13,300L154.2,553
		h292.14l146.07-253L446.34,47L446.34,47z"/>
</g>
<g>
	<path class="st0" d="M238.25,398.6V210.26h73.41c12.42,0,22.72,1.29,30.91,3.86c8.19,2.58,15.27,7.96,21.25,16.14
		c5.98,8.19,8.97,17.8,8.97,28.84c0,10.4-3.04,19.43-9.11,27.11c-6.07,7.68-14.44,12.58-25.11,14.7
		c13.25,2.3,23.27,7.68,30.08,16.14c6.81,8.46,10.21,18.49,10.21,30.08c0,14.54-4.76,26.75-14.28,36.63
		c-9.52,9.89-24.17,14.83-43.95,14.83H238.25z M270.4,289.32h41.39c8.46,0,15.15-2.53,20.08-7.59c4.92-5.06,7.38-11.5,7.38-19.32
		c0-8.65-2.81-15.02-8.42-19.11c-5.61-4.09-12.19-6.14-19.73-6.14h-40.7V289.32z M270.4,370.32h43.88c9.29,0,16.63-2.44,22.01-7.31
		c5.38-4.87,8.07-11.45,8.07-19.73c0-7.91-2.74-14.39-8.21-19.46c-5.47-5.06-12.72-7.59-21.73-7.59H270.4V370.32z"/>
</g>
<g>
</g>
<g>
</g>
<g>
</g>
<g>
</g>
<g>
</g>
<g>
</g>
<g>
</g>
<g>
</g>
<g>
</g>
<g>
</g>
<g>
</g>
<g>
</g>
<g>
</g>
<g>
</g>
<g>
</g>
</svg>
